<svg width="40" height="40" fill="none" xmlns="http://www.w3.org/2000/svg"><path d="M38.828 11.797h-3.594V1.172C35.234.525 34.71 0 34.062 0h-7.03c-.648 0-1.173.525-1.173 1.172v10.625h-4.687V3.516A3.52 3.52 0 0017.656 0a3.52 3.52 0 00-3.515 3.516v8.28H9.375A4.693 4.693 0 004.687 7.11 4.693 4.693 0 000 11.797v23.515A4.693 4.693 0 004.688 40h34.14c.647 0 1.172-.525 1.172-1.172v-25.86c0-.646-.525-1.171-1.172-1.171zm-5.937-9.453v30.625h-4.688v-2.344h1.172a1.172 1.172 0 100-2.344h-1.172v-2.343h1.172a1.172 1.172 0 100-2.344h-1.172v-2.422h1.172a1.172 1.172 0 100-2.344h-1.172v-2.344h1.172a1.172 1.172 0 100-2.343h-1.172v-2.344h1.172a1.172 1.172 0 100-2.344h-1.172V7.031h1.172a1.172 1.172 0 100-2.343h-1.172V2.344h4.688zM18.828 25.937h-2.344V7.032h2.344v18.907zm-.454 2.344l-.718 2.154-.717-2.154h1.435zm-.718-25.937c.646 0 1.172.526 1.172 1.172v1.171h-2.344V3.516c0-.646.526-1.172 1.172-1.172zM4.688 9.454a2.346 2.346 0 012.343 2.343v19.459c-.69-.4-1.49-.631-2.343-.631-.854 0-1.654.23-2.344.63V11.798a2.346 2.346 0 012.344-2.344zm32.968 28.202H4.688a2.346 2.346 0 01-2.344-2.343 2.346 2.346 0 012.344-2.344 2.346 2.346 0 012.343 2.343 1.172 1.172 0 102.344 0v-21.17h4.766V27.11c0 .125.024.263.06.37l2.343 7.032a1.172 1.172 0 002.224 0l2.344-7.031.002-.009c.035-.108.058-.24.058-.362V14.141h4.687v20c0 .647.525 1.172 1.172 1.172h7.032c.647 0 1.171-.525 1.171-1.172v-20h2.422v23.515z" fill="#F3F1EF"/></svg>