<svg width="38" height="40" fill="none" xmlns="http://www.w3.org/2000/svg"><path d="M2.624 0v5.29H.562v2.34h2.062v4.43H.562v2.34h2.062v4.43H.562v2.34h2.062v4.43H.562v2.34h2.062v4.43H.562v2.34h2.062V40h34.814V0H2.623zm32.47 37.66H4.967v-2.95H7.03v-2.34H4.967v-4.43H7.03V25.6H4.967v-4.43H7.03v-2.34H4.967V14.4H7.03v-2.34H4.967V7.63H7.03V5.29H4.967V2.34h30.127v35.32z" fill="#F3F1EF"/><path d="M23.157 9.126h7.6v2.339h-7.6v-2.34zm0 9.711h7.6v2.34h-7.6v-2.34zm0 10.478h7.6v2.34h-7.6v-2.34zM19.564 8.11l-1.657-1.653-3.79 3.783-1.755-1.751-1.657 1.654 3.411 3.405 5.448-5.437zm0 9.856l-1.657-1.654-3.79 3.783-1.755-1.751-1.657 1.654 3.411 3.405 5.448-5.437zm0 9.855l-1.657-1.654-3.79 3.783-1.755-1.75-1.657 1.653 3.411 3.405 5.448-5.437z" fill="#F3F1EF"/></svg>