<svg width="15" height="8" fill="none" xmlns="http://www.w3.org/2000/svg"><path d="M14.658.542c.103-.312 0-.542-.495-.542h-1.64c-.418 0-.61.198-.713.417 0 0-.836 1.828-2.017 3.013-.381.342-.556.452-.765.452-.103 0-.262-.11-.262-.422V.543C8.766.166 8.649 0 8.304 0H5.725c-.262 0-.418.175-.418.338 0 .354.59.437.652 1.437v2.17c0 .475-.095.563-.303.563-.557 0-1.91-1.836-2.713-3.936C2.782.165 2.623 0 2.203 0H.563C.094 0 0 .198 0 .417c0 .39.557 2.328 2.592 4.888C3.95 7.053 5.86 8 7.596 8c1.045 0 1.173-.21 1.173-.572 0-1.67-.095-1.828.429-1.828.242 0 .66.11 1.634.953C11.946 7.553 12.13 8 12.753 8h1.64c.468 0 .705-.21.569-.625-.312-.872-2.42-2.668-2.515-2.787-.242-.28-.172-.405 0-.655.003-.003 2.005-2.533 2.211-3.39z" fill="#F3F1EF"/></svg>