<svg width="38" height="40" viewBox="0 0 38 40" fill="none" xmlns="http://www.w3.org/2000/svg">
<path d="M2.62367 0V5.2907H0.5625V7.62992H2.62367V12.0605H0.5625V14.3998H2.62367V18.8304H0.5625V21.1696H2.62367V25.6002H0.5625V27.9395H2.62367V32.3701H0.5625V34.7093H2.62367V40H37.4375V0H2.62367ZM35.0938 37.6608H4.96742V34.7092H7.02852V32.37H4.96742V27.9394H7.02852V25.6002H4.96742V21.1695H7.02852V18.8303H4.96742V14.3997H7.02852V12.0605H4.96742V7.62992H7.02852V5.2907H4.96742V2.33914H35.0938V37.6608Z" fill="#F3F1EF"/>
<path d="M23.1565 9.12561H30.7568V11.4648H23.1565V9.12561Z" fill="#F3F1EF"/>
<path d="M23.1565 18.8372H30.7568V21.1764H23.1565V18.8372Z" fill="#F3F1EF"/>
<path d="M23.1565 29.3149H30.7568V31.6542H23.1565V29.3149Z" fill="#F3F1EF"/>
<path d="M19.564 8.11061L17.9068 6.45654L14.1163 10.2397L12.3619 8.48873L10.7046 10.1427L14.1163 13.5477L19.564 8.11061Z" fill="#F3F1EF"/>
<path d="M19.564 17.9657L17.9068 16.3116L14.1163 20.0948L12.3619 18.3438L10.7046 19.9979L14.1163 23.4028L19.564 17.9657Z" fill="#F3F1EF"/>
<path d="M19.564 27.821L17.9068 26.167L14.1163 29.95L12.3619 28.1991L10.7046 29.8532L14.1163 33.2581L19.564 27.821Z" fill="#F3F1EF"/>
</svg>
