<svg width="15" height="15" viewBox="0 0 15 15" fill="none" xmlns="http://www.w3.org/2000/svg">
<path fill-rule="evenodd" clip-rule="evenodd" d="M10.9396 0H4.06036C1.82144 0 0 1.82144 0 4.06036V10.9397C0 13.1785 1.82144 15 4.06036 15H10.9397C13.1785 15 15 13.1785 15 10.9397V4.06036C15 1.82144 13.1785 0 10.9396 0ZM7.49999 11.6014C5.23841 11.6014 3.39855 9.76156 3.39855 7.49999C3.39855 5.23841 5.23841 3.39855 7.49999 3.39855C9.76156 3.39855 11.6014 5.23841 11.6014 7.49999C11.6014 9.76156 9.76156 11.6014 7.49999 11.6014ZM11.6995 4.3658C11.0312 4.3658 10.4876 3.8222 10.4876 3.15387C10.4876 2.48554 11.0312 1.94183 11.6995 1.94183C12.3678 1.94183 12.9115 2.48554 12.9115 3.15387C12.9115 3.8222 12.3678 4.3658 11.6995 4.3658ZM7.50003 4.27783C5.72345 4.27783 4.27795 5.72322 4.27795 7.49991C4.27795 9.27649 5.72345 10.722 7.50003 10.722C9.27672 10.722 10.7221 9.27649 10.7221 7.49991C10.7221 5.72322 9.27672 4.27783 7.50003 4.27783ZM11.3669 3.15385C11.3669 2.97052 11.5162 2.82129 11.6995 2.82129C11.883 2.82129 12.0322 2.97041 12.0322 3.15385C12.0322 3.3373 11.883 3.48642 11.6995 3.48642C11.5162 3.48642 11.3669 3.33719 11.3669 3.15385Z" fill="#F3F1EF"/>
</svg>
