<svg width="15" height="8" viewBox="0 0 15 8" fill="none" xmlns="http://www.w3.org/2000/svg">
<path d="M14.6581 0.5425C14.7612 0.23 14.6581 0 14.1625 0H12.5224C12.1047 0 11.9125 0.1975 11.8095 0.4175C11.8095 0.4175 10.9741 2.245 9.79344 3.43C9.41195 3.7725 9.23652 3.8825 9.02768 3.8825C8.92465 3.8825 8.76592 3.7725 8.76592 3.46V0.5425C8.76592 0.1675 8.64897 0 8.30368 0H5.72514C5.46339 0 5.30745 0.175 5.30745 0.3375C5.30745 0.6925 5.89779 0.775 5.95905 1.775V3.945C5.95905 4.42 5.86437 4.5075 5.65552 4.5075C5.0986 4.5075 3.74529 2.6725 2.94332 0.5725C2.78182 0.165 2.62309 0 2.20262 0H0.562489C0.0946764 0 0 0.1975 0 0.4175C0 0.8075 0.55692 2.745 2.59246 5.305C3.94856 7.0525 5.8588 8 7.59639 8C8.64062 8 8.76871 7.79 8.76871 7.4275C8.76871 5.7575 8.67403 5.6 9.19754 5.6C9.4398 5.6 9.85749 5.71 10.8321 6.5525C11.9459 7.5525 12.1297 8 12.7535 8H14.3936C14.8614 8 15.0981 7.79 14.9617 7.375C14.6498 6.5025 12.5418 4.7075 12.4472 4.5875C12.2049 4.3075 12.2745 4.1825 12.4472 3.9325C12.45 3.93 14.4521 1.4 14.6581 0.5425Z" fill="#F3F1EF"/>
</svg>
